<?xml version="1.0" encoding="utf-8"?>
<!-- Generator: Adobe Illustrator 17.1.0, SVG Export Plug-In . SVG Version: 6.00 Build 0)  -->
<!DOCTYPE svg PUBLIC "-//W3C//DTD SVG 1.1//EN" "http://www.w3.org/Graphics/SVG/1.1/DTD/svg11.dtd">
<svg version="1.1" xmlns="http://www.w3.org/2000/svg" xmlns:xlink="http://www.w3.org/1999/xlink" x="0px" y="0px"
	 viewBox="0 0 250 250" enable-background="new 0 0 250 250" xml:space="preserve">
<g id="Layer_2">
</g>
<g id="Layer_4">
	<g>
		<g>
			<defs>
				<circle id="SVGID_1_" cx="125" cy="125" r="125"/>
			</defs>
			<use xlink:href="#SVGID_1_"  overflow="visible" fill="#D1ECFB"/>
			<clipPath id="SVGID_2_">
				<use xlink:href="#SVGID_1_"  overflow="visible"/>
			</clipPath>
			<g clip-path="url(#SVGID_2_)">
				<path fill="#FD6120" d="M123.8,251.9c38.5,0,74.8-5.6,107-15.4L223,176c-0.9-7.4-14.5-12.5-31.2-14.4c-45.5-5-90.6-5-136.1,0
					c-16.7,1.8-30.3,6.9-31.2,14.4l-7.8,60.5C49,246.4,85.3,251.9,123.8,251.9z"/>
				<path fill="#DE3F18" d="M230.8,236.6L223,176c-0.9-7.4-14.5-12.5-31.2-14.4c-23.6-2.6-47.1-3.8-70.5-3.7L100,188.6l84.3,58.6
					C200.5,244.6,216.1,241,230.8,236.6z"/>
				<path fill="#DCDAC8" d="M153.3,172.3c-1,13.7-15,23.4-31.4,23.4l0,0c-16.4-0.1-30.4-9.8-31.4-23.5c-0.4-7-0.9-14-1.3-21
					c-1-13.7,13.6-26.5,32.7-26.4l0,0c19.1,0,33.7,12.8,32.7,26.5C154.2,158.3,153.7,165.3,153.3,172.3z"/>
				<path fill="#C0BEAE" d="M132.7,126.3c-8,3.8-13.6,17.3-13.5,33.2c0,9.8,0.1,19.5,0.1,29.3c0,2.4,0.1,4.7,0.4,6.9
					c0.7,0,1.5,0.1,2.2,0.1c16.4,0,30.4-9.7,31.4-23.4c0.2-3.8,0.5-7.6,0.7-11.4c0.5-8-0.4-15.5-2.5-21.6
					C147.8,133.4,141.1,128.5,132.7,126.3z"/>
				<path fill="#0E303F" d="M122.2,52.8L122.2,52.8c0,0-0.1,0-0.1,0c0,0-0.1,0-0.1,0v0c-35-0.4-43.5,22.5-41.5,62.5
					c0.8,15.5,4.5,27.3,7.9,36.1c1.2,2.9,18.5,23.6,23.8,23.6c2.4,0,6.5,0.9,9.9,0.7c3.5,0.2,7.3-0.7,9.7-0.7
					c5.3,0,22.7-20.6,23.8-23.6c3.4-8.8,7.3-20.6,8-36.1C165.4,76.3,154,52,122.2,52.8z"/>
				<path fill="#DCDAC8" d="M90.6,126.2c0.2,4.2-2,7.9-4.9,8.3l0,0c-2.9,0.4-5.4-2.6-5.6-6.8c-0.4-6.7-0.7-13.5-1.1-20.2
					c-0.2-4.2,2-8,5.1-8.4l0,0c3-0.4,5.6,2.7,5.7,6.9C90.1,112.7,90.3,119.5,90.6,126.2z"/>
				<path fill="#DCDAC8" d="M163,127.7c-0.2,4.2-2.7,7.2-5.6,6.8l0,0c-2.9-0.4-5.1-4.1-4.9-8.3c0.3-6.8,0.5-13.5,0.8-20.3
					c0.2-4.2,2.7-7.3,5.8-6.9l0,0c3,0.4,5.3,4.2,5.1,8.4C163.7,114.2,163.3,121,163,127.7z"/>
				<path fill="#F2EFDC" d="M155.1,107.7c-0.8-18.2,1.6-35,1.7-35c0.1-0.1-17.1-9-30.5-8.4c-1.4,0.1-3,0.4-4.7,1.1
					c-1.7-0.6-3.2-1-4.6-1.1c-13.4-0.6-30.6,8.3-30.6,8.4c0,0,2.5,16.7,1.7,35c-0.9,18.2-3.3,34.1,2.7,39.2
					c6.1,5.1,16.4,16.8,30.1,17.3c0.3,0,0.5,0,0.8,0c0.3,0,0.5,0,0.8,0c13.7-0.6,24-12.2,30.1-17.3
					C158.4,141.8,156,125.9,155.1,107.7z"/>
				<path fill="#DCDAC8" d="M160.2,72.7c0.1-0.1-18.8-9-33.5-8.4c-1.2,0-2.4,0.3-3.8,0.7c-0.1,33-0.2,66.1-0.3,99.1
					c14.9-0.7,26.1-12.2,32.8-17.3c6.6-5.1,3.9-20.9,3-39.2C157.5,89.5,160.2,72.7,160.2,72.7z"/>
				<g>
					<path fill="#0E303F" d="M82.6,106.7c0,0-3.5-38.5-6.1-42.4c-2.7-4.1,33.4-11.9,44.1-11.9c10.6-0.6,20.3,2.7,26.5,4
						c5.9,1.2-23.5,24.4-23.1,24.7c0.7-2.1,1.4-4.2,2.1-6.2c-2.3,1.7-4.5,3.4-6.7,5.2c-9.1-2.4-18.4-4.5-27.8-6.4
						c0.1,5,0.1,10.1,0.2,15.1c-1.8,2.5-3.6,5.1-5.4,7.7c-0.4,3.3-0.8,6.7-1.2,10C84.3,106.6,83.4,106.6,82.6,106.7z"/>
					<path fill="#0E303F" d="M160.7,106.7c0,0,4.6-38.5,6.2-42.4c1.8-4.5-33.5-11.9-44.1-12c-10.6-0.5-19.5,2.6-25.7,4
						c-3.9,0.5,31.3-1.1,41.2,5.1c3.5,2-10.2,18.5-10.1,18.6c7.8-2.3,15.6-4.4,23.6-6.4c-0.1,5-0.1,10.1-0.2,15.1
						c1.8,2.5,3.6,5.1,5.4,7.7c0.4,3.3,0.8,6.7,1.2,10C159,106.6,159.8,106.7,160.7,106.7z"/>
				</g>
				<g>
					<g>
						<g>
							<path fill="#0E303F" d="M97.7,124.2L97.7,124.2c-4.3-0.1-8.4-1.8-11.2-4.8c-2.5-2.7-3.8-6.1-3.6-9.6l0.1-3.2
								c0-0.8,0.2-1.6,0.3-2.5l0.2-1l1-0.3c8.8-2.9,18.4-3.2,27.5-1l0,0c1.5,0.4,5.9,2.1,6,5l0.1,3c0.2,3.2-1,6.4-3.4,9
								c-2.8,3.1-6.9,4.9-11.3,5.1L97.7,124.2z M86.6,105.9c0,0.3-0.1,0.6-0.1,0.9l-0.1,3.2c-0.1,2.6,0.8,5.1,2.7,7
								c2.2,2.3,5.3,3.6,8.6,3.7l5.6-0.1c3.4-0.2,6.7-1.6,8.8-4c1.7-1.9,2.6-4.2,2.5-6.5l-0.1-3.1c-0.2-0.5-2.3-1.5-3.2-1.8l-0.1,0
								C103,103.3,94.5,103.6,86.6,105.9z"/>
						</g>
						<g>
							<path fill="#0E303F" d="M143.1,124.2L143.1,124.2c-4.3-0.1-8.4-1.8-11.2-4.8c-2.5-2.7-3.8-6.1-3.6-9.6l0.1-3.1
								c0-0.8,0.2-1.7,0.3-2.5l0.2-1l1-0.3c8.8-2.9,18.4-3.2,27.5-1l0,0c1.5,0.4,5.9,2.1,6,5l0.1,3c0.2,3.2-1,6.4-3.4,9
								c-2.8,3.1-6.9,4.9-11.3,5.1L143.1,124.2z M132,105.9c0,0.3-0.1,0.6-0.1,0.9l-0.1,3.2c-0.1,2.6,0.8,5.1,2.7,7
								c2.2,2.3,5.3,3.6,8.6,3.7l5.6-0.1c3.4-0.1,6.7-1.6,8.8-4c1.7-1.9,2.6-4.2,2.5-6.5l-0.1-3.1c-0.3-0.5-2.4-1.5-3.3-1.8
								C148.4,103.3,139.9,103.6,132,105.9z"/>
						</g>
					</g>
					<rect x="115.3" y="106.1" fill="#0E303F" width="15.1" height="6.6"/>
				</g>
				<path fill="#0E303F" d="M140.6,141.5c-1.8-2.6-7.5-4.9-14.9-4.9c-0.1,0-2.6,1.7-2.7,1.6c-0.3-0.1-2.5-1.6-2.6-1.6
					c-7.3,0-13.3,2.3-15.1,4.9c-10.9,20.9-15,2.3-19.8-3.6c8.1,18.9,15.7,32.8,36.7,35.8c0.2,0,0.5,0,0.7,0c0.2,0,6.6-0.8,6.8-0.8
					c13,0,22.5-16.1,30.6-35C155.6,143.8,151.5,162.3,140.6,141.5z"/>
				<g>
					<path fill="#F2EFDC" d="M114.2,145.5c-0.1,0.4-0.2,0.7-0.2,1.1c0,2.8,2.6,5,5.7,5h6.4c3.2,0,5.7-2.3,5.7-5
						c0-0.4-0.1-0.8-0.2-1.1H114.2z"/>
				</g>
			</g>
		</g>
	</g>
</g>
<g id="Layer_3">
</g>
</svg>
