<?xml version="1.0" encoding="utf-8"?>
<!-- Generator: Adobe Illustrator 17.1.0, SVG Export Plug-In . SVG Version: 6.00 Build 0)  -->
<!DOCTYPE svg PUBLIC "-//W3C//DTD SVG 1.1//EN" "http://www.w3.org/Graphics/SVG/1.1/DTD/svg11.dtd">
<svg version="1.1" xmlns="http://www.w3.org/2000/svg" xmlns:xlink="http://www.w3.org/1999/xlink" x="0px" y="0px"
	 viewBox="0 0 300 300" enable-background="new 0 0 300 300" xml:space="preserve">
<g id="Layer_2">
</g>
<g id="Layer_4">
	<g>
		<path fill="#FFFFFF" d="M128.6,300c-0.6,0-1.2,0-1.9,0c-0.5,0-0.9-0.4-0.9-0.9c0-0.5,0.4-0.9,0.9-0.9c0.7,0,1.4,0,2.1,0
			c1.4,0,2.9,0,4.3-0.1c0,0,0,0,0,0c0.5,0,0.9,0.4,0.9,0.9c0,0.5-0.4,0.9-0.9,1C131.6,300,130.1,300,128.6,300z M120.4,299.8
			C120.4,299.8,120.4,299.8,120.4,299.8c-2.2-0.1-4.3-0.2-6.4-0.4c-0.5,0-0.9-0.5-0.8-1c0-0.5,0.5-0.9,1-0.9
			c2.1,0.2,4.2,0.3,6.3,0.4c0.5,0,0.9,0.5,0.9,1C121.3,299.4,120.9,299.8,120.4,299.8z M139.5,299.7c-0.5,0-0.9-0.4-0.9-0.9
			c0-0.5,0.4-1,0.9-1c2.1-0.1,4.2-0.3,6.3-0.5c0.5,0,0.9,0.3,1,0.8c0,0.5-0.3,1-0.8,1C143.8,299.4,141.6,299.6,139.5,299.7
			C139.5,299.7,139.5,299.7,139.5,299.7z M107.7,298.7c0,0-0.1,0-0.1,0c-2.1-0.2-4.2-0.5-6.3-0.9c-0.5-0.1-0.8-0.6-0.8-1.1
			c0.1-0.5,0.6-0.9,1-0.8c2.1,0.3,4.2,0.6,6.3,0.9c0.5,0.1,0.9,0.5,0.8,1C108.6,298.4,108.2,298.7,107.7,298.7z M152.1,298.5
			c-0.5,0-0.8-0.3-0.9-0.8c-0.1-0.5,0.3-1,0.8-1c2.1-0.3,4.2-0.6,6.3-0.9c0.5-0.1,1,0.3,1,0.8c0.1,0.5-0.3,1-0.7,1.1
			c-2.1,0.4-4.2,0.7-6.3,1C152.2,298.5,152.2,298.5,152.1,298.5z M95.1,296.8c-0.1,0-0.1,0-0.2,0c-2.1-0.4-4.2-0.8-6.3-1.3
			c-0.5-0.1-0.8-0.6-0.7-1.1c0.1-0.5,0.6-0.8,1.1-0.7c2.1,0.5,4.1,0.9,6.2,1.3c0.5,0.1,0.8,0.6,0.7,1.1
			C95.9,296.5,95.6,296.8,95.1,296.8z M164.7,296.3c-0.4,0-0.8-0.3-0.9-0.7c-0.1-0.5,0.2-1,0.7-1.1c2.1-0.4,4.1-0.9,6.2-1.4
			c0.5-0.1,1,0.2,1.1,0.7c0.1,0.5-0.2,1-0.7,1.1c-2.1,0.5-4.2,1-6.2,1.4C164.8,296.3,164.7,296.3,164.7,296.3z M82.7,293.9
			c-0.1,0-0.2,0-0.2,0c-2-0.5-4.1-1.1-6.2-1.8c-0.5-0.1-0.8-0.7-0.6-1.2c0.1-0.5,0.6-0.8,1.1-0.6c2,0.6,4.1,1.2,6.1,1.8
			c0.5,0.1,0.8,0.6,0.6,1.1C83.5,293.6,83.1,293.9,82.7,293.9z M177,293.3c-0.4,0-0.8-0.3-0.9-0.7c-0.1-0.5,0.2-1,0.6-1.1
			c2-0.6,4.1-1.2,6.1-1.8c0.5-0.2,1,0.1,1.1,0.6c0.2,0.5-0.1,1-0.6,1.2c-2,0.6-4.1,1.3-6.1,1.8C177.2,293.3,177.1,293.3,177,293.3z
			 M70.5,290.2c-0.1,0-0.2,0-0.3,0c-2-0.7-4-1.4-6-2.2c-0.5-0.2-0.7-0.7-0.5-1.2c0.2-0.5,0.7-0.7,1.2-0.5c2,0.8,4,1.5,6,2.2
			c0.5,0.2,0.7,0.7,0.6,1.2C71.3,289.9,70.9,290.2,70.5,290.2z M189.2,289.4c-0.4,0-0.7-0.2-0.9-0.6c-0.2-0.5,0.1-1,0.6-1.2
			c2-0.7,4-1.5,5.9-2.3c0.5-0.2,1,0,1.2,0.5c0.2,0.5,0,1-0.5,1.2c-2,0.8-4,1.6-6,2.3C189.4,289.4,189.3,289.4,189.2,289.4z
			 M58.6,285.6c-0.1,0-0.2,0-0.4-0.1c-1.9-0.8-3.9-1.7-5.9-2.6c-0.5-0.2-0.7-0.8-0.4-1.2c0.2-0.5,0.7-0.7,1.2-0.5
			c1.9,0.9,3.9,1.8,5.8,2.6c0.5,0.2,0.7,0.7,0.5,1.2C59.3,285.3,59,285.6,58.6,285.6z M201,284.7c-0.4,0-0.7-0.2-0.8-0.6
			c-0.2-0.5,0-1,0.5-1.2c1.9-0.9,3.9-1.8,5.8-2.7c0.5-0.2,1,0,1.2,0.4c0.2,0.5,0,1-0.4,1.2c-1.9,0.9-3.9,1.8-5.8,2.7
			C201.2,284.7,201.1,284.7,201,284.7z M47.1,280.1c-0.1,0-0.3,0-0.4-0.1c-1.9-1-3.8-2-5.7-3.1c-0.4-0.2-0.6-0.8-0.4-1.3
			c0.2-0.4,0.8-0.6,1.2-0.4c1.9,1,3.7,2.1,5.6,3c0.4,0.2,0.6,0.8,0.4,1.2C47.7,279.9,47.4,280.1,47.1,280.1z M212.5,279.1
			c-0.3,0-0.6-0.2-0.8-0.5c-0.2-0.5-0.1-1,0.4-1.3c1.9-1,3.7-2,5.6-3.1c0.4-0.3,1-0.1,1.2,0.4c0.2,0.4,0.1,1-0.3,1.3
			c-1.8,1.1-3.7,2.1-5.6,3.1C212.8,279,212.6,279.1,212.5,279.1z M35.9,273.8c-0.2,0-0.3,0-0.5-0.1c-1.8-1.1-3.6-2.3-5.4-3.5
			c-0.4-0.3-0.5-0.9-0.3-1.3c0.3-0.4,0.8-0.6,1.3-0.3c1.8,1.2,3.6,2.3,5.4,3.4c0.4,0.3,0.6,0.8,0.3,1.3
			C36.5,273.6,36.2,273.8,35.9,273.8z M223.5,272.7c-0.3,0-0.6-0.2-0.8-0.4c-0.3-0.4-0.1-1,0.3-1.3c1.8-1.1,3.6-2.3,5.3-3.5
			c0.4-0.3,1-0.2,1.3,0.3c0.3,0.4,0.2,1-0.3,1.3c-1.8,1.2-3.6,2.4-5.4,3.5C223.8,272.6,223.7,272.7,223.5,272.7z M25.3,266.7
			c-0.2,0-0.4-0.1-0.5-0.2c-1.7-1.2-3.5-2.5-5.2-3.8c-0.4-0.3-0.5-0.9-0.2-1.3c0.3-0.4,0.9-0.5,1.3-0.2c1.7,1.3,3.4,2.6,5.1,3.8
			c0.4,0.3,0.5,0.9,0.2,1.3C25.8,266.6,25.5,266.7,25.3,266.7z M234.1,265.5c-0.3,0-0.6-0.1-0.7-0.4c-0.3-0.4-0.2-1,0.2-1.3
			c1.7-1.3,3.4-2.5,5.1-3.9c0.4-0.3,1-0.2,1.3,0.2c0.3,0.4,0.2,1-0.2,1.3c-1.7,1.3-3.4,2.6-5.1,3.9
			C234.5,265.4,234.3,265.5,234.1,265.5z M15.1,258.9c-0.2,0-0.4-0.1-0.6-0.2c-1.6-1.4-3.3-2.8-4.9-4.2c-0.4-0.3-0.4-0.9-0.1-1.3
			c0.3-0.4,0.9-0.4,1.3-0.1c1.6,1.4,3.2,2.8,4.9,4.2c0.4,0.3,0.5,0.9,0.1,1.3C15.6,258.8,15.3,258.9,15.1,258.9z M244.2,257.5
			c-0.3,0-0.5-0.1-0.7-0.3c-0.3-0.4-0.3-1,0.1-1.3c1.6-1.4,3.2-2.8,4.8-4.2c0.4-0.3,0.9-0.3,1.3,0.1c0.3,0.4,0.3,1-0.1,1.3
			c-1.6,1.4-3.2,2.9-4.8,4.3C244.6,257.5,244.4,257.5,244.2,257.5z M5.5,250.3c-0.2,0-0.4-0.1-0.6-0.3c-1.5-1.5-3.1-3-4.6-4.5
			c-0.4-0.4-0.4-1,0-1.3c0.4-0.4,0.9-0.4,1.3,0c1.5,1.5,3,3,4.6,4.5c0.4,0.3,0.4,0.9,0,1.3C6,250.2,5.7,250.3,5.5,250.3z
			 M253.6,248.9c-0.2,0-0.5-0.1-0.7-0.3c-0.3-0.4-0.3-1,0-1.3c1-1,2-2,3-3c0.5-0.5,1-1,1.5-1.5c0.4-0.4,0.9-0.4,1.3,0
			c0.4,0.4,0.4,0.9,0,1.3c-0.5,0.5-1,1-1.5,1.5c-1,1-2,2.1-3.1,3.1C254.1,248.8,253.9,248.9,253.6,248.9z M262.5,239.5
			c-0.2,0-0.4-0.1-0.6-0.2c-0.4-0.3-0.4-0.9-0.1-1.3c1.4-1.6,2.8-3.3,4.1-4.9c0.3-0.4,0.9-0.5,1.3-0.1c0.4,0.3,0.4,0.9,0.1,1.3
			c-1.3,1.7-2.7,3.4-4.2,5C263,239.4,262.8,239.5,262.5,239.5z M270.5,229.5c-0.2,0-0.4-0.1-0.5-0.2c-0.4-0.3-0.5-0.9-0.2-1.3
			c1.3-1.7,2.5-3.5,3.7-5.3c0.3-0.4,0.8-0.5,1.3-0.2c0.4,0.3,0.5,0.9,0.2,1.3c-1.2,1.8-2.4,3.6-3.7,5.3
			C271.1,229.3,270.8,229.5,270.5,229.5z M277.7,218.7c-0.2,0-0.3,0-0.5-0.1c-0.4-0.3-0.6-0.8-0.3-1.3c1.1-1.8,2.2-3.7,3.2-5.6
			c0.2-0.5,0.8-0.6,1.2-0.4c0.4,0.2,0.6,0.8,0.4,1.3c-1,1.9-2.1,3.8-3.2,5.7C278.3,218.5,278,218.7,277.7,218.7z M283.9,207.3
			c-0.1,0-0.3,0-0.4-0.1c-0.4-0.2-0.6-0.8-0.4-1.2c0.9-1.9,1.8-3.9,2.7-5.8c0.2-0.5,0.7-0.7,1.2-0.5c0.5,0.2,0.7,0.8,0.5,1.2
			c-0.9,2-1.8,4-2.7,5.9C284.5,207.1,284.2,207.3,283.9,207.3z M289.1,195.4c-0.1,0-0.2,0-0.3-0.1c-0.5-0.2-0.7-0.7-0.5-1.2
			c0.8-2,1.5-4,2.2-6.1c0.2-0.5,0.7-0.7,1.2-0.6c0.5,0.2,0.7,0.7,0.6,1.2c-0.7,2.1-1.4,4.1-2.2,6.1
			C289.8,195.2,289.4,195.4,289.1,195.4z M145.3,192.7L145.3,192.7c-2.1,0-4.3-0.1-6.4-0.3c-0.5,0-0.9-0.5-0.8-1
			c0-0.5,0.5-0.9,1-0.8c2.1,0.2,4.2,0.3,6.3,0.3c0.5,0,0.9,0.4,0.9,0.9C146.2,192.3,145.8,192.7,145.3,192.7z M151.6,192.4
			c-0.5,0-0.9-0.4-0.9-0.9c0-0.5,0.3-1,0.8-1c2.1-0.2,4.2-0.5,6.2-0.8c0.5-0.1,1,0.3,1,0.8c0.1,0.5-0.2,1-0.7,1.1
			C156,191.9,153.8,192.2,151.6,192.4C151.7,192.4,151.6,192.4,151.6,192.4z M132.6,191.5c-0.1,0-0.1,0-0.2,0
			c-2.1-0.4-4.2-0.8-6.3-1.4c-0.5-0.1-0.8-0.6-0.6-1.1c0.1-0.5,0.6-0.8,1.1-0.7c2,0.5,4.1,1,6.1,1.4c0.5,0.1,0.8,0.6,0.7,1.1
			C133.4,191.2,133,191.5,132.6,191.5z M164.1,190.2c-0.4,0-0.8-0.3-0.9-0.7c-0.1-0.5,0.2-1,0.7-1.1c2-0.5,4-1.2,6-1.9
			c0.5-0.2,1,0.1,1.2,0.6c0.2,0.5-0.1,1-0.6,1.2c-2,0.7-4.1,1.4-6.2,1.9C164.3,190.2,164.2,190.2,164.1,190.2z M120.3,188.2
			c-0.1,0-0.2,0-0.3-0.1c-2-0.7-4-1.6-6-2.5c-0.5-0.2-0.7-0.8-0.4-1.2c0.2-0.5,0.7-0.7,1.2-0.5c1.9,0.9,3.9,1.7,5.8,2.4
			c0.5,0.2,0.7,0.7,0.5,1.2C121,188,120.7,188.2,120.3,188.2z M176.1,185.9c-0.3,0-0.7-0.2-0.8-0.5c-0.2-0.5,0-1,0.5-1.2
			c1.9-0.9,3.8-1.9,5.6-2.9c0.4-0.3,1-0.1,1.2,0.4c0.2,0.4,0.1,1-0.3,1.3c-1.9,1.1-3.8,2.1-5.7,3
			C176.4,185.8,176.2,185.9,176.1,185.9z M293.2,183.1c-0.1,0-0.2,0-0.3,0c-0.5-0.1-0.8-0.7-0.6-1.2c0.6-2.1,1.1-4.2,1.7-6.2
			c0.1-0.5,0.6-0.8,1.1-0.7c0.5,0.1,0.8,0.6,0.7,1.1c-0.5,2.1-1.1,4.2-1.7,6.3C293.9,182.9,293.6,183.1,293.2,183.1z M108.8,182.8
			c-0.2,0-0.3,0-0.4-0.1c-1.9-1.1-3.7-2.3-5.5-3.5c-0.4-0.3-0.5-0.9-0.2-1.3c0.3-0.4,0.8-0.5,1.3-0.2c1.7,1.2,3.5,2.4,5.3,3.4
			c0.4,0.3,0.6,0.8,0.3,1.3C109.4,182.6,109.1,182.8,108.8,182.8z M187.2,179.5c-0.3,0-0.6-0.1-0.8-0.4c-0.3-0.4-0.2-1,0.2-1.3
			c1.7-1.2,3.4-2.5,5-3.9c0.4-0.3,1-0.3,1.3,0.1c0.3,0.4,0.3,1-0.1,1.3c-1.7,1.4-3.4,2.7-5.1,3.9
			C187.5,179.4,187.3,179.5,187.2,179.5z M98.3,175.4c-0.2,0-0.4-0.1-0.6-0.2c-1.6-1.4-3.3-2.9-4.8-4.4c-0.4-0.4-0.4-0.9,0-1.3
			c0.4-0.4,0.9-0.4,1.3,0c1.5,1.5,3.1,2.9,4.7,4.3c0.4,0.3,0.4,0.9,0.1,1.3C98.8,175.3,98.6,175.4,98.3,175.4z M197,171.3
			c-0.2,0-0.5-0.1-0.7-0.3c-0.4-0.4-0.3-1,0-1.3c0.3-0.3,0.5-0.5,0.8-0.8c0.4-0.4,0.9-0.4,1.3,0c0.4,0.4,0.4,1,0,1.3
			c-0.3,0.3-0.5,0.5-0.8,0.8C197.5,171.2,197.2,171.3,197,171.3z M296.2,170.5c-0.1,0-0.1,0-0.2,0c-0.5-0.1-0.8-0.6-0.7-1.1
			c0.4-2.1,0.8-4.2,1.1-6.4c0.1-0.5,0.5-0.8,1-0.8c0.5,0.1,0.8,0.6,0.8,1.1c-0.3,2.2-0.7,4.3-1.1,6.4
			C297,170.2,296.7,170.5,296.2,170.5z M89.2,166.3c-0.3,0-0.5-0.1-0.7-0.3c-1.4-1.6-2.8-3.3-4.1-5.1c-0.3-0.4-0.2-1,0.2-1.3
			c0.4-0.3,1-0.2,1.3,0.2c1.3,1.7,2.6,3.4,4,5c0.3,0.4,0.3,1-0.1,1.3C89.6,166.3,89.4,166.3,89.2,166.3z M298.2,157.7
			c0,0-0.1,0-0.1,0c-0.5-0.1-0.9-0.5-0.8-1c0.2-2.1,0.4-4.3,0.6-6.4c0-0.5,0.5-0.9,1-0.9c0.5,0,0.9,0.5,0.8,1
			c-0.1,2.2-0.3,4.4-0.6,6.5C299,157.3,298.7,157.7,298.2,157.7z M81.4,156.1c-0.3,0-0.6-0.1-0.8-0.4c-1.2-1.8-2.3-3.7-3.4-5.6
			c-0.2-0.4-0.1-1,0.3-1.3c0.4-0.3,1-0.1,1.2,0.3c1,1.9,2.2,3.7,3.3,5.5c0.3,0.4,0.2,1-0.2,1.3C81.8,156,81.6,156.1,81.4,156.1z
			 M75.1,144.8c-0.3,0-0.7-0.2-0.8-0.5c-0.9-2-1.8-4-2.6-6c-0.2-0.5,0-1,0.5-1.2c0.5-0.2,1,0,1.2,0.5c0.8,2,1.6,4,2.5,5.9
			c0.2,0.5,0,1-0.4,1.2C75.4,144.8,75.2,144.8,75.1,144.8z M299.1,144.7C299,144.7,299,144.7,299.1,144.7c-0.5,0-0.9-0.4-0.9-1
			c0-1.2,0-2.3,0-3.5c0-1,0-2,0-3c0-0.5,0.4-0.9,0.9-0.9c0,0,0,0,0,0c0.5,0,0.9,0.4,0.9,0.9c0,1,0,2,0,3c0,1.2,0,2.3,0,3.5
			C299.9,144.3,299.5,144.7,299.1,144.7z M70.4,132.7c-0.4,0-0.7-0.3-0.9-0.6c-0.7-2.1-1.2-4.2-1.8-6.3c-0.1-0.5,0.2-1,0.7-1.1
			c0.5-0.1,1,0.2,1.1,0.7c0.5,2.1,1.1,4.2,1.7,6.2c0.2,0.5-0.1,1-0.6,1.2C70.6,132.7,70.5,132.7,70.4,132.7z M298.8,131.7
			c-0.5,0-0.9-0.4-0.9-0.9c-0.1-2.2-0.3-4.3-0.5-6.4c-0.1-0.5,0.3-1,0.8-1c0.5-0.1,0.9,0.3,1,0.8c0.2,2.1,0.4,4.3,0.5,6.5
			C299.7,131.2,299.4,131.6,298.8,131.7C298.8,131.7,298.8,131.7,298.8,131.7z M67.3,120.1c-0.4,0-0.8-0.3-0.9-0.8
			c-0.4-2.2-0.7-4.3-0.9-6.5c-0.1-0.5,0.3-1,0.8-1c0.5,0,0.9,0.3,1,0.8c0.2,2.1,0.5,4.3,0.9,6.4c0.1,0.5-0.2,1-0.7,1.1
			C67.4,120.1,67.3,120.1,67.3,120.1z M297.4,118.7c-0.4,0-0.8-0.3-0.9-0.8c-0.3-2.1-0.7-4.3-1.1-6.4c-0.1-0.5,0.2-1,0.7-1.1
			c0.5-0.1,1,0.2,1.1,0.7c0.4,2.1,0.8,4.3,1.1,6.4c0.1,0.5-0.3,1-0.8,1.1C297.5,118.7,297.5,118.7,297.4,118.7z M65.9,107.2
			c-0.5,0-0.9-0.4-0.9-0.9c0-1.2-0.1-2.5-0.1-3.7c0-0.9,0-1.9,0-2.8c0-0.5,0.4-0.9,0.9-0.9c0,0,0,0,0,0c0.5,0,0.9,0.4,0.9,1
			c0,0.9,0,1.9,0,2.8c0,1.2,0,2.4,0.1,3.6C66.9,106.7,66.5,107.2,65.9,107.2C66,107.2,66,107.2,65.9,107.2z M295,106
			c-0.4,0-0.8-0.3-0.9-0.7c-0.5-2.1-1-4.2-1.6-6.2c-0.1-0.5,0.1-1,0.6-1.2c0.5-0.1,1,0.1,1.1,0.6c0.6,2.1,1.2,4.2,1.7,6.3
			c0.1,0.5-0.2,1-0.7,1.1C295.1,106,295,106,295,106z M66.3,94.2C66.3,94.2,66.3,94.2,66.3,94.2c-0.6-0.1-1-0.5-0.9-1
			c0.2-2.2,0.5-4.4,0.8-6.5c0.1-0.5,0.6-0.8,1-0.8c0.5,0.1,0.8,0.6,0.7,1.1c-0.3,2.1-0.6,4.2-0.8,6.4C67.2,93.8,66.8,94.2,66.3,94.2
			z M291.4,93.5c-0.4,0-0.7-0.2-0.9-0.6c-0.7-2-1.4-4.1-2.2-6.1c-0.2-0.5,0-1,0.5-1.2c0.5-0.2,1,0.1,1.2,0.5c0.8,2,1.5,4.1,2.2,6.1
			c0.2,0.5-0.1,1-0.6,1.2C291.6,93.5,291.5,93.5,291.4,93.5z M286.8,81.4c-0.3,0-0.7-0.2-0.8-0.6c-0.8-2-1.7-3.9-2.7-5.9
			c-0.2-0.5,0-1,0.4-1.2c0.4-0.2,1,0,1.2,0.4c0.9,1.9,1.9,3.9,2.7,5.9c0.2,0.5,0,1-0.5,1.2C287,81.4,286.9,81.4,286.8,81.4z
			 M68.4,81.4c-0.1,0-0.1,0-0.2,0c-0.5-0.1-0.8-0.6-0.7-1.1c0.5-2.1,1.1-4.3,1.7-6.3c0.1-0.5,0.7-0.8,1.1-0.6
			c0.5,0.2,0.7,0.7,0.6,1.2c-0.6,2-1.2,4.1-1.7,6.2C69.2,81.1,68.8,81.4,68.4,81.4z M281.1,69.7c-0.3,0-0.6-0.2-0.8-0.5
			c-1-1.9-2.1-3.8-3.2-5.6c-0.3-0.4-0.1-1,0.3-1.3c0.4-0.3,1-0.1,1.2,0.3c1.1,1.8,2.2,3.7,3.2,5.7c0.2,0.5,0.1,1-0.4,1.3
			C281.4,69.7,281.3,69.7,281.1,69.7z M72.2,69c-0.1,0-0.2,0-0.3-0.1c-0.5-0.2-0.7-0.7-0.5-1.2c0.8-2,1.6-4.1,2.5-6
			c0.2-0.5,0.8-0.7,1.2-0.4c0.5,0.2,0.6,0.8,0.4,1.2c-0.9,1.9-1.7,3.9-2.5,5.9C72.9,68.7,72.6,69,72.2,69z M274.5,58.6
			c-0.3,0-0.6-0.1-0.8-0.4c-1.2-1.8-2.4-3.6-3.6-5.3c-0.3-0.4-0.2-1,0.2-1.3c0.4-0.3,1-0.2,1.3,0.2c1.3,1.7,2.5,3.5,3.7,5.3
			c0.3,0.4,0.2,1-0.2,1.3C274.9,58.6,274.7,58.6,274.5,58.6z M77.7,57.2c-0.1,0-0.3,0-0.4-0.1c-0.4-0.3-0.6-0.8-0.3-1.3
			c1-1.9,2.2-3.8,3.3-5.6c0.3-0.4,0.8-0.5,1.3-0.3c0.4,0.3,0.5,0.9,0.3,1.3c-1.1,1.8-2.2,3.6-3.3,5.5C78.3,57,78,57.2,77.7,57.2z
			 M267,48.2c-0.3,0-0.5-0.1-0.7-0.3c-1.3-1.7-2.7-3.3-4.1-4.9c-0.3-0.4-0.3-1,0.1-1.3c0.4-0.3,0.9-0.3,1.3,0.1
			c1.4,1.6,2.8,3.3,4.1,5c0.3,0.4,0.3,1-0.1,1.3C267.4,48.1,267.2,48.2,267,48.2z M84.6,46.3c-0.2,0-0.4-0.1-0.5-0.2
			c-0.4-0.3-0.5-0.9-0.2-1.3c1.3-1.7,2.7-3.4,4.1-5.1c0.3-0.4,0.9-0.4,1.3-0.1c0.4,0.3,0.4,0.9,0.1,1.3c-1.4,1.6-2.7,3.3-4,5
			C85.2,46.2,84.9,46.3,84.6,46.3z M258.5,38.4c-0.2,0-0.5-0.1-0.7-0.3c-0.6-0.6-1.2-1.3-1.8-1.9c-0.9-0.9-1.8-1.8-2.7-2.7
			c-0.4-0.4-0.4-0.9,0-1.3c0.3-0.4,0.9-0.4,1.3,0c0.9,0.9,1.8,1.8,2.7,2.7c0.6,0.6,1.2,1.3,1.8,1.9c0.3,0.4,0.3,1,0,1.3
			C259,38.4,258.8,38.4,258.5,38.4z M93,36.5c-0.2,0-0.5-0.1-0.6-0.3c-0.4-0.4-0.4-1,0-1.3c1.5-1.5,3.1-3.1,4.7-4.5
			c0.4-0.3,0.9-0.3,1.3,0.1c0.3,0.4,0.3,1-0.1,1.3c-1.6,1.4-3.1,2.9-4.6,4.4C93.5,36.4,93.2,36.5,93,36.5z M249.3,29.5
			c-0.2,0-0.4-0.1-0.6-0.2c-1.6-1.4-3.3-2.7-4.9-4c-0.4-0.3-0.5-0.9-0.2-1.3c0.3-0.4,0.9-0.5,1.3-0.2c1.7,1.3,3.4,2.7,5,4.1
			c0.4,0.3,0.4,0.9,0.1,1.3C249.8,29.4,249.5,29.5,249.3,29.5z M102.5,27.8c-0.3,0-0.5-0.1-0.7-0.3c-0.3-0.4-0.3-1,0.1-1.3
			c1.7-1.4,3.4-2.7,5.1-4c0.4-0.3,1-0.2,1.3,0.2c0.3,0.4,0.2,1-0.2,1.3c-1.7,1.2-3.4,2.6-5,3.9C102.9,27.8,102.7,27.8,102.5,27.8z
			 M239.1,21.7c-0.2,0-0.3-0.1-0.5-0.2c-1.7-1.2-3.5-2.3-5.3-3.4c-0.4-0.3-0.6-0.8-0.3-1.3c0.3-0.4,0.8-0.6,1.2-0.3
			c1.8,1.1,3.7,2.3,5.4,3.5c0.4,0.3,0.5,0.9,0.2,1.3C239.7,21.6,239.4,21.7,239.1,21.7z M112.8,20.3c-0.3,0-0.6-0.2-0.8-0.4
			c-0.3-0.4-0.1-1,0.3-1.3c1.8-1.2,3.7-2.3,5.5-3.4c0.4-0.2,1-0.1,1.2,0.4c0.2,0.4,0.1,1-0.3,1.3c-1.8,1-3.6,2.2-5.4,3.3
			C113.1,20.2,113,20.3,112.8,20.3z M228.1,15.1c-0.1,0-0.3,0-0.4-0.1c-1.9-1-3.8-1.9-5.7-2.8c-0.5-0.2-0.7-0.8-0.5-1.2
			c0.2-0.5,0.7-0.7,1.2-0.5c1.9,0.9,3.9,1.9,5.8,2.9c0.4,0.2,0.6,0.8,0.4,1.3C228.8,14.9,228.5,15.1,228.1,15.1z M123.9,13.9
			c-0.3,0-0.7-0.2-0.8-0.5c-0.2-0.5,0-1,0.4-1.2c1.9-1,3.9-1.9,5.8-2.7c0.5-0.2,1,0,1.2,0.5c0.2,0.5,0,1-0.5,1.2
			c-1.9,0.8-3.9,1.7-5.7,2.7C124.2,13.9,124,13.9,123.9,13.9z M216.5,9.8c-0.1,0-0.2,0-0.3-0.1c-1.9-0.8-4-1.5-5.9-2.2
			c-0.5-0.2-0.7-0.7-0.6-1.2c0.2-0.5,0.7-0.8,1.1-0.6c2,0.7,4.1,1.4,6,2.2c0.5,0.2,0.7,0.7,0.5,1.2C217.3,9.5,216.9,9.8,216.5,9.8z
			 M135.6,8.8c-0.4,0-0.7-0.2-0.9-0.6c-0.2-0.5,0.1-1,0.5-1.2c2-0.7,4-1.4,6.1-2c0.5-0.1,1,0.1,1.1,0.6c0.1,0.5-0.1,1-0.6,1.2
			c-2,0.6-4,1.3-6,2C135.8,8.8,135.7,8.8,135.6,8.8z M204.4,5.8c-0.1,0-0.2,0-0.2,0c-2-0.5-4.1-1-6.1-1.5c-0.5-0.1-0.8-0.6-0.7-1.1
			c0.1-0.5,0.6-0.8,1.1-0.7c2.1,0.4,4.2,0.9,6.2,1.5c0.5,0.1,0.8,0.6,0.6,1.1C205.2,5.5,204.8,5.8,204.4,5.8z M147.8,5.1
			c-0.4,0-0.8-0.3-0.9-0.7c-0.1-0.5,0.2-1,0.7-1.1c2.1-0.5,4.2-1,6.3-1.4c0.5-0.1,1,0.2,1.1,0.7c0.1,0.5-0.2,1-0.7,1.1
			c-2.1,0.4-4.1,0.8-6.2,1.3C147.9,5.1,147.8,5.1,147.8,5.1z M192,3.2c0,0-0.1,0-0.1,0c-2.1-0.3-4.2-0.6-6.3-0.8
			c-0.5,0-0.9-0.5-0.8-1c0-0.5,0.5-0.9,1-0.8c2.1,0.2,4.3,0.5,6.4,0.8c0.5,0.1,0.8,0.5,0.8,1.1C192.8,2.8,192.4,3.2,192,3.2z
			 M160.3,2.8c-0.5,0-0.8-0.3-0.9-0.8c-0.1-0.5,0.3-1,0.8-1c2.1-0.3,4.3-0.5,6.4-0.6c0.5,0,0.9,0.3,1,0.9c0,0.5-0.3,1-0.8,1
			c-2.1,0.1-4.2,0.4-6.3,0.6C160.4,2.8,160.3,2.8,160.3,2.8z M179.3,1.9C179.3,1.9,179.3,1.9,179.3,1.9c-2.1-0.1-4.2-0.1-6.3-0.1
			c-0.5,0-0.9-0.4-0.9-0.9c0-0.5,0.4-0.9,0.9-0.9c2.1,0,4.3,0,6.4,0.1c0.5,0,0.9,0.5,0.9,1C180.2,1.6,179.8,1.9,179.3,1.9z"/>
	</g>
</g>
<g id="Layer_3">
</g>
</svg>
